<?xml version="1.0" encoding="UTF-8" standalone="no"?>
<!-- Created with Inkscape (http://www.inkscape.org/) -->

<svg
   width="135.79709mm"
   height="135.68059mm"
   viewBox="0 0 135.79709 135.68059"
   version="1.1"
   id="svg1"
   xml:space="preserve"
   xmlns="http://www.w3.org/2000/svg"
   xmlns:svg="http://www.w3.org/2000/svg"><defs
     id="defs1" /><g
     id="layer1"
     transform="translate(-42.349757,-75.810663)"><path
       style="fill:#ffffff;fill-opacity:1;stroke:#08ef4a;stroke-width:0.391999;stroke-opacity:0"
       d="m -151.22194,104.88195 c -5.56488,12.57909 -7.15846,26.87957 -4.50641,40.37653 2.65205,13.49696 9.53663,26.12943 19.43664,35.67883 11.74719,11.33116 27.70426,18.19376 44.009297,18.92692 16.305035,0.73316 32.813623,-4.66961 45.530369,-14.90074 10.492147,-8.50059 18.34629,-20.21221 22.228427,-33.14566 3.882137,-12.93346 3.775972,-27.03446 -0.300465,-39.90799 -4.076436,-12.873538 -12.106031,-24.465564 -22.724982,-32.807214 -10.618951,-8.34165 -23.78268,-13.397904 -37.25537,-14.309973 -13.739113,-0.930106 -27.740066,2.458591 -39.530426,9.57306 -11.79036,7.114469 -21.31592,17.922964 -26.88708,30.516237 z"
       id="path38"
       transform="translate(199.5252,11.36502)" /><path
       style="fill:#000000"
       d="m 104.77897,211.08273 c -9.94294,-0.81241 -20.14204,-4.0668 -28.79821,-9.18909 -3.45399,-2.0439 -8.36096,-5.6454 -11.11837,-8.16038 l -1.6843,-1.53622 2.31843,-1.98236 c 1.27513,-1.0903 2.80697,-2.41444 3.40409,-2.94254 l 1.08565,-0.96018 3.57188,-1.52661 c 3.28145,-1.40249 5.73927,-2.31287 10.31875,-3.82206 0.94588,-0.31172 2.41417,-0.7967 3.26286,-1.07772 l 1.54307,-0.51095 2.02881,-1.44336 c 1.11584,-0.79385 3.02636,-2.40165 4.2456,-3.57288 l 2.21681,-2.12951 -0.33097,-0.3988 c -0.18204,-0.21934 -0.47271,-0.39879 -0.64595,-0.39879 -0.17324,0 -0.63782,-0.33698 -1.0324,-0.74883 l -0.71742,-0.74883 -0.25612,-2.22773 c -0.14086,-1.22526 -0.25701,-3.08391 -0.25812,-4.13035 l -0.002,-1.90262 0.28091,-0.1736 c 0.15449,-0.0955 0.39773,-0.42994 0.54052,-0.74322 0.34321,-0.753 0.77284,-1.46414 1.47609,-2.44333 0.31774,-0.44241 0.66158,-1.15432 0.76408,-1.58201 0.1025,-0.42768 0.27836,-0.89667 0.39079,-1.04219 0.11244,-0.14552 0.28744,-0.7088 0.3889,-1.25173 l 0.18446,-0.98715 1.0015,-0.86494 C 99.907436,151.76505 102.88383,149.75272 105,148.5 l 0.96961,-0.57398 2.16719,-0.0213 2.16721,-0.0213 0.16352,0.26458 0.16352,0.26459 h 0.89012 0.89013 l 0.80019,0.67331 0.80018,0.67331 0.45343,-0.69202 0.45343,-0.69202 1.08179,-0.48872 c 0.59498,-0.26879 1.90185,-0.85942 2.90414,-1.31251 1.00229,-0.45309 2.43104,-1.0785 3.175,-1.38981 0.74396,-0.3113 1.50659,-0.68357 1.69474,-0.82726 l 0.34209,-0.26127 -0.78888,-0.81807 c -1.01108,-1.04847 -1.34063,-1.88807 -1.82698,-4.65453 l -0.39535,-2.24895 -0.006,-2.91042 -0.006,-2.91042 0.26993,-1.05833 c 0.2821,-1.10607 1.067,-2.5768 2.15336,-4.0349 l 0.64066,-0.85989 -0.36213,-0.0338 c -0.19917,-0.0186 -2.56098,-0.10787 -5.24847,-0.19843 l -4.88633,-0.16467 1.57904,-0.86436 c 0.86848,-0.47541 2.29342,-1.2833 3.16655,-1.79533 0.87312,-0.51203 2.09351,-1.18859 2.71198,-1.50346 l 1.12447,-0.5725 v -0.31176 c 0,-0.17146 -0.17551,-0.45741 -0.39002,-0.63544 l -0.39003,-0.3237 0.15378,-1.49464 0.15377,-1.49464 -0.57718,-3.40309 c -0.31745,-1.87169 -0.6384,-3.56263 -0.71323,-3.75764 -0.0748,-0.195 -0.0633,-0.47221 0.0255,-0.61601 l 0.16158,-0.26145 0.76472,0.26659 0.76472,0.26658 1.67314,2.03272 c 0.92022,1.11799 2.23611,2.73157 2.92419,3.58572 l 1.25107,1.553 -0.15977,1.22513 c -0.0879,0.67381 -0.35949,2.54071 -0.60359,4.14866 -0.24409,1.60795 -0.39617,3.06647 -0.33795,3.24115 l 0.10586,0.3176 h 0.60702 0.60702 l 0.24919,-0.33073 0.24917,-0.33073 0.47303,-4.43606 0.47303,-4.43605 -1.00652,-1.22833 c -0.55358,-0.67557 -2.00954,-2.31075 -3.23546,-3.63373 l -2.22895,-2.40541 -0.96008,-0.45609 c -0.52805,-0.25084 -1.16142,-0.4592 -1.40749,-0.46302 -0.24608,-0.004 -0.51521,-0.11664 -0.59808,-0.25072 -0.0829,-0.13409 -0.50439,-2.24745 -0.93671,-4.69636 -0.43233,-2.448905 -0.90574,-5.089518 -1.05201,-5.868025 l -0.26596,-1.415466 -1.52492,-1.987218 c -0.83871,-1.092969 -1.76304,-2.320299 -2.05408,-2.7274 -1.93219,-2.702692 -9.26204,-12.353565 -9.5712,-12.601971 l -0.37808,-0.303772 3.07179,-0.191933 3.07179,-0.191933 4.08957,0.306301 c 13.67927,1.024557 25.63158,5.481738 36.43694,13.58784 l 3.23127,2.424078 3.71368,3.713678 3.71368,3.713679 2.42407,3.231262 c 6.66963,8.89055 10.7645,18.33057 12.75173,29.39691 l 0.5378,2.99485 0.30845,4.21505 0.30846,4.21505 -0.30846,4.21505 -0.30845,4.21505 -0.5378,2.99484 c -1.98723,11.06635 -6.0821,20.50637 -12.75173,29.39691 l -2.42407,3.23127 -3.71368,3.71368 -3.71368,3.71368 -3.23127,2.42408 c -13.49239,10.1219 -29.81069,14.88183 -46.3781,13.52814 z m -1.32117,-40.99652 c 0.50836,-0.15771 1.51374,-0.42708 2.23416,-0.5986 l 1.30987,-0.31187 0.99868,-2.34768 0.99869,-2.34769 -0.1546,-0.25015 -0.15461,-0.25015 -0.60801,0.1526 c -0.33441,0.0839 -0.79767,0.22538 -1.02947,0.31433 l -0.42145,0.16172 v -0.67415 -0.67415 l 0.27617,-0.17068 0.27617,-0.17069 0.37259,0.30922 0.37259,0.30923 0.51389,-0.16311 0.51389,-0.1631 0.61472,-0.89712 0.61472,-0.89712 0.207,0.12794 c 0.11386,0.0704 0.20883,0.44833 0.21106,0.83992 0.002,0.3916 0.0947,0.85454 0.20542,1.02875 l 0.20137,0.31677 0.26959,-0.18447 c 0.33635,-0.23016 2.5016,-6.87256 2.47523,-7.59335 -0.0106,-0.29074 -0.24228,-0.88581 -0.51476,-1.32237 -0.27249,-0.43657 -0.76173,-1.30095 -1.08721,-1.92085 -0.32547,-0.61991 -0.79692,-1.31276 -1.04766,-1.53967 l -0.45588,-0.41257 -1.99632,-0.0478 -1.99632,-0.0478 -0.34386,0.41205 c -0.40171,0.48137 -2.47587,1.8369 -2.81072,1.8369 -0.12609,0 -0.44475,0.23813 -0.70814,0.52917 -0.26339,0.29104 -0.5795,0.52917 -0.70247,0.52917 -0.73585,0 -1.81756,1.78724 -2.64226,4.36562 -0.32582,1.01865 -0.66212,1.91162 -0.74734,1.98438 -0.0852,0.0728 -0.56858,0.66301 -1.07414,1.31167 l -0.91921,1.17938 -0.0928,2.33452 c -0.051,1.28399 -0.0259,2.59874 0.0558,2.92167 l 0.14855,0.58713 0.77694,0.34088 c 3.03611,1.33206 4.3172,1.57083 5.86013,1.09218 z m 23.49628,-28.29857 0.57906,-0.53948 v -0.61192 -0.61192 l 1.38345,-2.07736 1.38345,-2.07736 0.0962,-1.73218 0.0962,-1.73218 -0.73061,-1.45041 -0.73061,-1.4504 -0.12003,-1.32772 -0.12002,-1.32772 -0.40542,-0.46302 c -0.50755,-0.57967 -0.86641,-0.58092 -1.98127,-0.007 l -0.88587,0.45609 -0.81502,1.32985 -0.81502,1.32985 -0.28853,2.24896 -0.28852,2.24896 0.25243,1.05833 c 0.13884,0.58208 0.25528,1.6255 0.25875,2.31869 0.003,0.6932 0.11887,1.46711 0.25644,1.7198 0.13757,0.25268 0.31623,0.87614 0.39703,1.38547 l 0.14689,0.92604 0.72746,0.43883 c 0.95082,0.57358 0.93116,0.57422 1.6036,-0.0523 z m -19.45763,-22.18769 -1.35634,-2.88341 -1.67276,-1.1896 c -0.92001,-0.65428 -2.43884,-1.51061 -3.37516,-1.90297 l -1.70241,-0.71337 -2.39863,0.11047 -2.39864,0.11047 -5.75494,1.01612 -5.75495,1.01612 -1.78568,-0.72674 -1.78568,-0.72674 -8.99583,-1.17545 c -4.94771,-0.6465 -9.71642,-1.24743 -10.59715,-1.33539 l -1.60132,-0.15993 -1.83826,0.99379 c -1.01105,0.54658 -2.73124,1.47336 -3.82264,2.05952 -1.09141,0.58615 -2.48118,1.33709 -3.08839,1.66875 l -1.10402,0.60302 0.40657,-0.97552 c 1.34381,-3.2243 4.54413,-8.54011 7.56901,-12.5723 l 2.41551,-3.219882 3.71368,-3.713679 3.71368,-3.713678 3.23127,-2.424078 C 78.40503,83.075012 87.84365,78.981031 98.9138,76.993111 l 2.99836,-0.538431 1.10268,0.613084 1.10267,0.613084 1.52568,2.094489 c 0.83911,1.151968 2.28682,3.166051 3.21713,4.475738 0.9303,1.309688 2.50594,3.483887 3.50141,4.831554 0.99547,1.347667 2.34085,3.183505 2.98972,4.079638 l 1.17977,1.629334 0.75335,5.143843 c 0.41434,2.829106 0.70575,5.191426 0.64759,5.249596 -0.0582,0.0582 -1.70198,-0.31825 -3.65291,-0.8365 -1.95093,-0.51824 -4.32106,-1.11207 -5.26694,-1.31962 -0.94589,-0.20755 -1.98769,-0.44185 -2.31511,-0.52067 l -0.59531,-0.1433 v 0.21186 c 0,0.11652 0.56555,0.3732 1.25677,0.57039 0.69122,0.19719 1.91161,0.56757 2.71198,0.82306 0.80037,0.25549 2.88396,0.90699 4.63021,1.44777 1.74625,0.54078 3.27504,1.0763 3.39732,1.19004 0.12227,0.11374 0.45262,1.85698 0.73412,3.87386 0.28149,2.01688 0.57642,3.87542 0.6554,4.13008 0.17828,0.5748 -0.10281,1.52135 -0.45178,1.52135 -0.14272,0 -1.40729,0.53998 -2.81016,1.19995 l -2.55066,1.19995 -2.30932,1.97505 c -1.27012,1.08628 -2.35514,1.97505 -2.41114,1.97505 -0.056,0 -0.71219,-1.29753 -1.45818,-2.88341 z"
       id="path37" /></g></svg>
